<svg xmlns="http://www.w3.org/2000/svg" xmlns:xlink="http://www.w3.org/1999/xlink" version="1.1" width="499px" height="500px" style="shape-rendering:geometricPrecision; text-rendering:geometricPrecision; image-rendering:optimizeQuality; fill-rule:evenodd; clip-rule:evenodd">
<g><path style="opacity:0.884" fill="#0a092b" d="M 447.5,-0.5 C 448.833,-0.5 450.167,-0.5 451.5,-0.5C 467.057,9.33776 471.557,23.0044 465,40.5C 461.917,45.5877 458.083,50.0877 453.5,54C 444.167,59.6667 434.833,65.3333 425.5,71C 423.126,73.039 421.126,75.3723 419.5,78C 427.743,74.8036 436.076,74.8036 444.5,78C 451.506,82.9039 453.339,89.4039 450,97.5C 445.106,103.887 438.939,106.054 431.5,104C 430.572,103.612 429.905,102.945 429.5,102C 431.534,100.17 433.701,98.337 436,96.5C 436.959,89.7854 433.959,86.4521 427,86.5C 419.855,87.2421 414.188,90.5754 410,96.5C 395.864,118.24 387.697,142.074 385.5,168C 385.749,178.913 387.916,189.413 392,199.5C 392.147,186.464 392.813,173.464 394,160.5C 397.253,138.27 409.087,122.77 429.5,114C 452.928,110.096 463.428,119.929 461,143.5C 456.24,156.301 447.74,159.801 435.5,154C 433.291,152.127 431.458,149.96 430,147.5C 429.219,146.056 429.386,144.723 430.5,143.5C 439.587,147.122 445.254,144.122 447.5,134.5C 446.055,127.386 441.721,124.053 434.5,124.5C 424.118,126.042 416.285,131.375 411,140.5C 403.086,155.491 399.253,171.491 399.5,188.5C 400.081,204.903 402.914,220.903 408,236.5C 412.667,249.833 417.333,263.167 422,276.5C 422.871,272.016 424.204,267.683 426,263.5C 432.333,252.167 438.667,240.833 445,229.5C 447.121,217.763 444.788,207.096 438,197.5C 439.259,201.391 440.592,205.391 442,209.5C 443.156,213.418 443.656,217.418 443.5,221.5C 433.682,218.505 427.849,211.838 426,201.5C 426.378,193.541 424.545,186.207 420.5,179.5C 442.699,183.221 454.199,196.554 455,219.5C 461.076,214.095 466.409,208.095 471,201.5C 471.667,200.833 471.667,200.167 471,199.5C 467.833,203.333 464.667,207.167 461.5,211C 459.975,212.009 458.308,212.509 456.5,212.5C 456.205,193.625 465.205,181.792 483.5,177C 488.42,175.75 493.42,175.25 498.5,175.5C 498.5,176.167 498.5,176.833 498.5,177.5C 496.213,178.619 494.379,180.285 493,182.5C 489.809,192.087 485.475,201.087 480,209.5C 471.916,216.083 463.416,222.083 454.5,227.5C 438.959,245.948 430.793,267.281 430,291.5C 434.909,285.962 441.076,282.962 448.5,282.5C 453.143,283.483 457.809,283.65 462.5,283C 468.158,281.171 469.992,277.337 468,271.5C 465.441,268.651 462.274,267.817 458.5,269C 456.167,270 454.5,271.667 453.5,274C 452.551,274.617 451.718,274.451 451,273.5C 450.185,267.963 452.351,264.129 457.5,262C 465.863,259.535 473.03,261.368 479,267.5C 480.969,271.649 480.635,275.649 478,279.5C 474.574,282.465 470.741,284.798 466.5,286.5C 477.603,294.633 480.436,304.966 475,317.5C 469.681,323.167 463.181,325.001 455.5,323C 443.318,319.451 440.985,312.784 448.5,303C 450.677,301.798 453.011,301.298 455.5,301.5C 453.209,308.256 455.543,312.256 462.5,313.5C 469.219,311.384 471.052,307.051 468,300.5C 459.005,290.623 448.505,288.457 436.5,294C 433.421,296.793 431.754,300.293 431.5,304.5C 435.128,318.678 437.961,333.012 440,347.5C 444.506,379.001 435.006,405.168 411.5,426C 391.912,439.388 370.245,444.388 346.5,441C 334.907,439.935 323.574,437.602 312.5,434C 296.444,430.723 289.277,437.223 291,453.5C 292.557,462.381 297.557,468.048 306,470.5C 310.531,470.321 313.031,467.988 313.5,463.5C 312.249,456.539 308.249,454.206 301.5,456.5C 301.963,447.547 306.63,444.047 315.5,446C 319.58,448.312 322.08,451.812 323,456.5C 325.767,469.656 320.6,477.323 307.5,479.5C 298.539,478.855 291.539,474.855 286.5,467.5C 285.2,471.966 282.867,475.799 279.5,479C 272.81,483.063 267.31,481.896 263,475.5C 259.77,468.104 260.27,460.937 264.5,454C 267.217,451.924 270.217,451.257 273.5,452C 274.451,452.718 274.617,453.551 274,454.5C 269.052,457.07 267.385,461.07 269,466.5C 274.963,471.962 279.629,470.962 283,463.5C 283.599,458.98 283.432,454.48 282.5,450C 282.701,441.927 286.035,435.594 292.5,431C 269.942,431.63 249.608,438.63 231.5,452C 224.784,458.05 219.617,465.216 216,473.5C 213.872,476.63 211.372,479.463 208.5,482C 200.207,486.766 191.54,490.766 182.5,494C 180.627,495.704 178.96,497.537 177.5,499.5C 176.833,499.5 176.167,499.5 175.5,499.5C 174.782,485.479 179.448,473.645 189.5,464C 195.182,460.439 201.349,458.273 208,457.5C 209.973,457.309 211.473,457.976 212.5,459.5C 209.826,463.837 206.493,467.504 202.5,470.5C 208.862,466.65 214.529,461.816 219.5,456C 203.475,456.287 191.642,449.454 184,435.5C 181.487,430.893 179.987,426.226 179.5,421.5C 186.167,425.732 193.5,427.566 201.5,427C 211.838,428.849 218.505,434.682 221.5,444.5C 213.301,444.534 205.634,442.534 198.5,438.5C 197.304,438.846 197.304,439.346 198.5,440C 205.986,444.746 214.153,447.246 223,447.5C 226.947,446.81 230.78,445.644 234.5,444C 247.116,434.359 261.116,427.359 276.5,423C 257.226,415.464 237.559,409.131 217.5,404C 197.079,399.129 176.746,399.463 156.5,405C 143.234,408.526 133.067,416.026 126,427.5C 124,432.833 124,438.167 126,443.5C 132.475,450.329 138.475,449.996 144,442.5C 145.726,438.803 145.56,435.136 143.5,431.5C 147.219,430.927 150.386,432.26 153,435.5C 160.051,447.35 157.218,456.183 144.5,462C 120.534,465.033 110.368,454.533 114,430.5C 122.886,409.642 138.719,397.809 161.5,395C 174.135,393.845 186.801,393.179 199.5,393C 182.851,386.862 165.851,385.529 148.5,389C 129.433,393.573 111.766,401.24 95.5,412C 88.6486,417.199 85.8153,424.032 87,432.5C 88.7129,437.038 91.8795,438.538 96.5,437C 98.4603,434.894 100.294,432.727 102,430.5C 103.91,432.201 105.077,434.367 105.5,437C 102.888,451.279 94.8878,455.612 81.5,450C 77.6423,445.6 75.6423,440.433 75.5,434.5C 76.0437,429.685 76.877,425.018 78,420.5C 74.3333,422.833 71.3333,425.833 69,429.5C 63.7515,439.67 57.7515,449.337 51,458.5C 38.4302,470.068 24.5968,471.901 9.5,464C 5.55869,460.562 2.22535,456.729 -0.5,452.5C -0.5,451.167 -0.5,449.833 -0.5,448.5C 8.80714,456.089 19.1405,457.589 30.5,453C 42.8332,448.823 51.8332,440.99 57.5,429.5C 49.4153,431.083 41.2487,432.083 33,432.5C 17.6331,433.333 7.29976,426.666 2,412.5C 2.40622,394.585 11.5729,384.251 29.5,381.5C 40.865,383.033 47.365,389.367 49,400.5C 45.0572,396.779 40.5572,393.945 35.5,392C 21.9076,391.928 15.4076,398.761 16,412.5C 18.308,418.136 22.4747,421.636 28.5,423C 43.1895,425.166 57.1895,422.832 70.5,416C 77.4878,412.841 84.1545,409.174 90.5,405C 74.0536,404.228 66.5536,395.728 68,379.5C 64.4546,373.791 60.1213,373.125 55,377.5C 54.3333,379.167 54.3333,380.833 55,382.5C 57.1584,383.826 58.9918,385.493 60.5,387.5C 54.3416,389.671 50.1749,387.671 48,381.5C 46.8565,367.651 52.6898,363.485 65.5,369C 67.0456,371.257 68.7123,373.424 70.5,375.5C 79.5929,365.578 89.9263,363.744 101.5,370C 105.282,375.713 105.448,381.546 102,387.5C 96.0928,392.785 90.4261,392.452 85,386.5C 84.51,385.207 84.3433,383.873 84.5,382.5C 90.1225,384.853 93.7892,383.186 95.5,377.5C 94.4403,374.231 92.1069,372.565 88.5,372.5C 78.5456,375.387 74.3789,382.054 76,392.5C 77.8917,396.058 80.7251,398.558 84.5,400C 89.9042,400.772 95.2375,400.439 100.5,399C 117.399,388.049 135.733,380.716 155.5,377C 170.112,375.49 184.445,376.824 198.5,381C 213.956,386.061 228.956,392.228 243.5,399.5C 244.669,388.172 241.502,378.172 234,369.5C 236.526,374.912 238.859,380.578 241,386.5C 241.495,388.473 241.662,390.473 241.5,392.5C 232.406,389.912 225.906,384.246 222,375.5C 220.92,370.101 219.587,364.768 218,359.5C 217.047,357.545 215.713,355.878 214,354.5C 213.333,353.5 213.333,352.5 214,351.5C 226.513,353.756 237.18,359.422 246,368.5C 252.233,379.092 253.066,390.092 248.5,401.5C 270.869,412.898 294.203,421.398 318.5,427C 299.985,417.115 294.818,402.615 303,383.5C 318.875,366.878 337.041,364.044 357.5,375C 370.817,382.447 374.983,393.28 370,407.5C 361.143,417.661 350.643,420.161 338.5,415C 331.902,409.872 329.735,403.372 332,395.5C 332.689,394.643 333.522,393.977 334.5,393.5C 337.063,396.142 339.729,398.642 342.5,401C 346.5,403 350.5,403 354.5,401C 359.637,395.569 359.304,390.236 353.5,385C 337.609,377.135 323.442,379.635 311,392.5C 306.345,405.377 309.845,415.543 321.5,423C 330.129,429.321 339.795,432.654 350.5,433C 385.007,438.162 410.507,425.662 427,395.5C 433.944,374.588 434.277,353.588 428,332.5C 424.947,325.556 420.781,319.389 415.5,314C 399.002,304.056 387.502,308.223 381,326.5C 378.208,336.02 379.208,345.02 384,353.5C 392.824,361.512 398.657,359.846 401.5,348.5C 400.855,345.772 400.021,343.105 399,340.5C 396.357,339.024 394.19,337.024 392.5,334.5C 395.359,331.048 399.026,329.881 403.5,331C 415.963,336.437 419.796,345.603 415,358.5C 406.961,374.171 395.794,377.004 381.5,367C 366.016,350.248 363.516,331.748 374,311.5C 386.5,296.467 400.667,294.634 416.5,306C 419.719,309.552 422.552,313.385 425,317.5C 425.654,318.696 426.154,318.696 426.5,317.5C 420.198,293.592 411.531,270.592 400.5,248.5C 379.377,255.694 364.211,249.027 355,228.5C 353.287,223.695 351.787,218.862 350.5,214C 351.5,213.333 352.5,213.333 353.5,214C 355.305,216.403 357.638,218.07 360.5,219C 376.338,219.226 386.672,226.726 391.5,241.5C 389.473,241.662 387.473,241.495 385.5,241C 379.578,238.859 373.912,236.526 368.5,234C 377.174,241.503 387.174,244.67 398.5,243.5C 388.323,223.801 380.823,203.134 376,181.5C 373.477,159.26 377.477,138.26 388,118.5C 392.595,111.25 396.262,103.583 399,95.5C 400.395,77.5437 392.895,72.0437 376.5,79C 372.583,82.3281 371.083,86.4948 372,91.5C 375.137,96.7385 378.471,96.7385 382,91.5C 382.334,89.1527 382.167,86.8194 381.5,84.5C 386.956,85.1264 389.956,88.2931 390.5,94C 388.135,102.664 382.468,105.997 373.5,104C 367.763,101.214 364.763,96.547 364.5,90C 365.355,82.1207 368.689,75.6207 374.5,70.5C 366.415,66.3341 363.915,60.0007 367,51.5C 371.861,47.1783 377.361,46.3449 383.5,49C 387.71,52.4274 388.377,56.2608 385.5,60.5C 384.289,58.5781 382.956,56.7448 381.5,55C 375.242,54.2985 372.742,57.1318 374,63.5C 376.408,68.1882 380.075,69.5215 385,67.5C 397.847,69.6881 404.181,77.3548 404,90.5C 414.843,74.6409 421.343,57.1409 423.5,38C 423.597,29.6107 420.597,22.6107 414.5,17C 403.315,14.0094 395.481,17.8428 391,28.5C 390.299,31.9283 390.632,35.2617 392,38.5C 394.112,42.2784 396.612,45.7784 399.5,49C 385.846,46.6609 379.68,38.4942 381,24.5C 385.003,11.4938 393.67,3.82715 407,1.5C 420.472,3.30235 428.472,10.969 431,24.5C 432.21,35.6234 431.043,46.4567 427.5,57C 430.212,57.7381 432.545,57.0714 434.5,55C 448.261,43.3149 454.761,28.4816 454,10.5C 451.822,6.80572 449.655,3.13905 447.5,-0.5 Z M 202.5,470.5 C 202.027,471.906 201.027,472.573 199.5,472.5C 199.973,471.094 200.973,470.427 202.5,470.5 Z M 199.5,472.5 C 199.027,473.906 198.027,474.573 196.5,474.5C 196.973,473.094 197.973,472.427 199.5,472.5 Z"/></g>
</svg>